<svg xmlns="http://www.w3.org/2000/svg" width="124.245" height="124.237" viewBox="0 0 124.245 124.237"><defs><style>.a{fill:#2b65cd;}</style></defs><g transform="translate(-51 -346.458)"><g transform="translate(51 346.099)"><path class="a" d="M121.059,100.915,23.688,3.544a10.866,10.866,0,0,0-15.371,0L3.185,8.668a10.867,10.867,0,0,0,0,15.373l97.371,97.371a10.867,10.867,0,0,0,15.373,0l5.124-5.124A10.859,10.859,0,0,0,121.059,100.915Zm0,0"/><path class="a" d="M100.556,3.546,3.185,100.917a10.867,10.867,0,0,0,0,15.373l5.124,5.124a10.867,10.867,0,0,0,15.373,0l97.378-97.364a10.863,10.863,0,0,0,0-15.371l-5.124-5.124A10.868,10.868,0,0,0,100.556,3.546Zm0,0" transform="translate(0 -0.002)"/></g></g></svg>