<svg xmlns="http://www.w3.org/2000/svg" width="124.237" height="124.237" viewBox="0 0 124.237 124.237"><defs><style>.a{fill:#f23e5a;}</style></defs><g transform="translate(-308 -346.458)"><g transform="translate(0 14.982)"><g transform="translate(308 331.476)"><g transform="translate(5.75 5.734)"><path class="a" d="M56.377,0a56.377,56.377,0,1,0,56.377,56.377A56.377,56.377,0,0,0,56.377,0ZM88.549,88.359a45.526,45.526,0,0,1-64.344,0A45.3,45.3,0,0,1,56.377,11.08,45.272,45.272,0,0,1,88.549,88.359Z"/></g><path class="a" d="M62.119,0a62.119,62.119,0,1,0,62.119,62.119A62.119,62.119,0,0,0,62.119,0ZM97.567,97.358a50.162,50.162,0,0,1-70.9,0A49.91,49.91,0,0,1,62.119,12.209,49.883,49.883,0,0,1,97.567,97.358Z"/><g transform="translate(8.214 7.401)"><path class="a" d="M54.311,0a54.311,54.311,0,1,0,54.311,54.311A54.311,54.311,0,0,0,54.311,0ZM85.3,85.121a43.858,43.858,0,0,1-61.986,0A43.637,43.637,0,0,1,54.311,10.674,43.613,43.613,0,0,1,85.3,85.121Z"/></g></g></g></g></svg>